<?xml version="1.0" encoding="UTF-8"?>
<svg version="1.1" xmlns="http://www.w3.org/2000/svg" width="732" height="477">
<path d="M0 0 C241.56 0 483.12 0 732 0 C732 157.41 732 314.82 732 477 C490.44 477 248.88 477 0 477 C0 319.59 0 162.18 0 0 Z " fill="#6A6F85" transform="translate(0,0)"/>
<path d="M0 0 C3.35503067 2.41029279 6.29582288 4.97963121 9.0625 8.0625 C10.0525 9.1453125 10.0525 9.1453125 11.0625 10.25 C18.246552 20.35257312 21.28847954 30.71075611 20.0625 43.0625 C17.18864041 55.96221065 10.78325727 66.28650009 0.0625 74.0625 C-11.60456262 80.53733343 -25.38801925 82.39786799 -38.4375 79 C-48.86893864 75.14646167 -58.02098563 66.91213634 -63.25 57.125 C-63.84284952 55.78384264 -64.40491073 54.42870726 -64.9375 53.0625 C-65.23527344 52.32644531 -65.53304687 51.59039062 -65.83984375 50.83203125 C-69.72682508 39.85175679 -68.86887737 29.43507395 -64.296875 18.83984375 C-62.74625683 15.67177042 -61.10983331 12.84580205 -58.9375 10.0625 C-58.23625 9.093125 -57.535 8.12375 -56.8125 7.125 C-42.45223134 -9.45458291 -18.02859645 -11.51331159 0 0 Z " fill="#040509" transform="translate(290.9375,182.9375)"/>
<path d="M0 0 C8.69337553 -0.09070863 17.38643191 -0.16394945 26.0801754 -0.20724869 C30.11792085 -0.22804004 34.1553231 -0.25620073 38.19287109 -0.30175781 C42.09623162 -0.34552046 45.999264 -0.36920052 49.9028511 -0.37950897 C51.38507877 -0.38684625 52.8672904 -0.40117301 54.34937668 -0.42292023 C63.90890028 -0.55749189 72.73679839 -0.3185244 80.4375 6 C81.2109375 6.99 81.2109375 6.99 82 8 C82.53625 8.66 83.0725 9.32 83.625 10 C87.8086891 16.08536596 87.71252729 21.73569742 87 29 C85.43702427 34.05952968 82.46924317 38.03515066 79 42 C80.485 42.495 80.485 42.495 82 43 C87.15099275 49.9689902 87.61519474 55.53008674 87 64 C85.71714846 69.2351662 82.79100993 74.06324778 78.328125 77.16015625 C72.71097644 80.50884097 68.67591956 81.12532102 62.21191406 81.11352539 C61.20154335 81.11374443 61.20154335 81.11374443 60.17076111 81.1139679 C57.95234924 81.11327324 55.73402214 81.10550181 53.515625 81.09765625 C51.97434536 81.09579048 50.43306512 81.09436733 48.89178467 81.09336853 C44.84102737 81.08955585 40.79030609 81.07973624 36.73956299 81.06866455 C31.8761825 81.05662205 27.01278995 81.05204224 22.1493988 81.04621124 C14.76624084 81.03652381 7.38316187 81.01735853 0 81 C0 66.15 0 51.3 0 36 C8.91 36 17.82 36 27 36 C27 41.94 27 47.88 27 54 C29.78050781 53.97679687 32.56101562 53.95359375 35.42578125 53.9296875 C38.11645043 53.91409347 40.8071146 53.90194731 43.49780273 53.89013672 C45.36891938 53.88007433 47.24002028 53.86642309 49.11108398 53.84912109 C51.79935591 53.82488316 54.48742006 53.81351937 57.17578125 53.8046875 C58.01337479 53.79436493 58.85096832 53.78404236 59.71394348 53.77340698 C65.65838488 53.77225659 65.65838488 53.77225659 69 56 C69.375 58.5 69.375 58.5 69 61 C65.77825751 63.14782833 64.9566269 63.24649148 61.25317383 63.22705078 C60.29240433 63.22689972 59.33163483 63.22674866 58.3417511 63.22659302 C57.30729355 63.21627045 56.272836 63.20594788 55.20703125 63.1953125 C53.61528328 63.19106766 53.61528328 63.19106766 51.99137878 63.18673706 C48.59830503 63.17553184 45.20549413 63.15042647 41.8125 63.125 C39.51367568 63.11497065 37.21484724 63.10584472 34.91601562 63.09765625 C29.27724229 63.07559136 23.63866573 63.04105901 18 63 C18 57.06 18 51.12 18 45 C15.03 45 12.06 45 9 45 C9 53.91 9 62.82 9 72 C16.58256203 71.93234022 24.16418723 71.86189581 31.74627686 71.7644577 C35.27744362 71.71988209 38.80849406 71.68042974 42.33984375 71.65356445 C46.39612711 71.62246652 50.4517954 71.56768038 54.5078125 71.51171875 C56.3971904 71.50213387 56.3971904 71.50213387 58.32473755 71.49235535 C59.50550873 71.47256119 60.68627991 71.45276703 61.90283203 71.43237305 C62.93763702 71.42126999 63.97244202 71.41016693 65.03860474 71.39872742 C69.38272127 70.813828 72.77115751 69.25222428 75.84765625 66.1171875 C77.95875211 62.23849613 77.60093655 58.28082892 77 54 C75.23838541 50.20575318 74.19360549 48.50450917 70.32568359 46.86962891 C66.59773295 45.89481168 63.26557533 45.67837381 59.4140625 45.5859375 C58.36138687 45.55688828 58.36138687 45.55688828 57.28744507 45.5272522 C55.06675001 45.46792431 52.84600177 45.42126083 50.625 45.375 C49.11065566 45.33677698 47.59633206 45.29772278 46.08203125 45.2578125 C42.38821169 45.16226266 38.6942353 45.07806063 35 45 C35 42.03 35 39.06 35 36 C36.00377686 35.98541748 37.00755371 35.97083496 38.04174805 35.95581055 C41.7787575 35.89767948 45.51517369 35.82044835 49.25170898 35.73754883 C50.86651963 35.7043689 52.48144431 35.67631542 54.09643555 35.65356445 C56.42285592 35.61988975 58.74823783 35.56757037 61.07421875 35.51171875 C62.15107185 35.50213387 62.15107185 35.50213387 63.24967957 35.49235535 C68.70468813 35.33364173 72.02968169 34.0604636 75.79296875 30.125 C77.24931679 27.56107335 77.37062583 25.93311905 77.3125 23 C77.30863281 22.154375 77.30476563 21.30875 77.30078125 20.4375 C76.96915634 17.75004621 76.53784858 16.23011275 75 14 C71.19437418 11.24347049 68.49685078 10.61590943 63.83276367 10.56762695 C62.61187546 10.54783279 61.39098724 10.52803864 60.13310242 10.50764465 C58.82460831 10.50125473 57.5161142 10.49486481 56.16796875 10.48828125 C54.80746345 10.47142488 53.44697363 10.45327334 52.08650208 10.43388367 C48.51751545 10.38648087 44.94859161 10.35660913 41.37939453 10.33044434 C37.73262128 10.30058938 34.08606417 10.25407612 30.43945312 10.20898438 C23.29309265 10.12306229 16.14666539 10.05566795 9 10 C9 12.64 9 15.28 9 18 C9.70743851 17.99333817 10.41487701 17.98667633 11.14375305 17.97981262 C17.80918896 17.91971303 24.4745493 17.87403161 31.14019489 17.84456348 C34.56713223 17.82890426 37.99384577 17.80766196 41.4206543 17.77368164 C45.35983608 17.73486486 49.29892709 17.72029284 53.23828125 17.70703125 C54.46960281 17.69154739 55.70092438 17.67606354 56.96955872 17.66011047 C58.11051498 17.65988388 59.25147125 17.65965729 60.42700195 17.65942383 C61.432939 17.65276199 62.43887604 17.64610016 63.47529602 17.63923645 C66 18 66 18 67.86003113 19.36112976 C69 21 69 21 68.8125 23.5625 C68 26 68 26 66 28 C63.25387573 28.24050903 63.25387573 28.24050903 59.71435547 28.22705078 C59.07032776 28.22734283 58.42630005 28.22763489 57.76275635 28.22793579 C55.63076373 28.22654074 53.49911918 28.21097174 51.3671875 28.1953125 C49.89031159 28.19158298 48.41343322 28.18873572 46.93655396 28.18673706 C43.04682602 28.17909574 39.15724712 28.15944308 35.26757812 28.1373291 C31.29949968 28.11688135 27.33139718 28.10773764 23.36328125 28.09765625 C15.57544498 28.07619754 7.78776235 28.04101147 0 28 C0 18.76 0 9.52 0 0 Z " fill="#050509" transform="translate(327,179)"/>
<path d="M0 0 C8.58 0 17.16 0 26 0 C26.11560559 6.02947397 26.21489188 12.05501211 26.2746582 18.0847168 C26.29960383 20.13009766 26.3335731 22.17539124 26.37719727 24.22045898 C26.67819529 38.70731696 26.37722881 51.06534516 17 63 C16.58234375 63.55945313 16.1646875 64.11890625 15.734375 64.6953125 C9.00986616 73.23026602 0.47776581 77.21183861 -9.875 79.6875 C-22.2094843 80.92094843 -33.70297736 79.26444322 -43.94140625 71.75 C-53.1853987 63.89172937 -59.07556471 54.07145771 -61 42 C-61 36.72 -61 31.44 -61 26 C-48.46 26 -35.92 26 -23 26 C-23 28.97 -23 31.94 -23 35 C-32.57 35 -42.14 35 -52 35 C-49.92642149 47.78706746 -47.32781258 56.06084917 -37.015625 64.5625 C-29.78179019 69.72151397 -21.67123164 70.68257508 -13 70 C-4.28516641 68.42759883 2.58507841 64.41492159 8.8125 58.1875 C14.07328026 50.52179162 16.10352871 43.38198753 16.31640625 34.171875 C16.3475779 33.04836639 16.3475779 33.04836639 16.37937927 31.90216064 C16.44457088 29.51819712 16.50361783 27.13412688 16.5625 24.75 C16.60571416 23.13019746 16.64932937 21.51040557 16.69335938 19.890625 C16.80022096 15.92719168 16.90157333 11.9636514 17 8 C14.03 8 11.06 8 8 8 C8.02618408 9.04341553 8.05236816 10.08683105 8.0793457 11.16186523 C8.17052538 15.06984625 8.22749222 18.97773524 8.2746582 22.88647461 C8.29964944 24.57120629 8.33365479 26.25583124 8.37719727 27.94018555 C8.83703298 46.19836831 8.83703298 46.19836831 3 53 C-2.98167436 59.25673243 -8.65079415 62.11413268 -17.3125 62.5 C-24.72805485 62.3039566 -30.32780971 60.28283124 -35.87890625 55.3203125 C-39.07002374 51.86006462 -40.86974816 48.63403253 -42 44 C-38.62205716 43.71480783 -35.36768532 43.55170423 -32 44 C-30.1875 46.3125 -30.1875 46.3125 -29 49 C-25.30072839 51.7662404 -22.58112132 52.4100596 -18 52.375 C-16.989375 52.38273437 -15.97875 52.39046875 -14.9375 52.3984375 C-11.62710665 51.94942138 -9.76513033 50.81461678 -7 49 C-6.34 49 -5.68 49 -5 49 C-4.31653318 47.34015202 -3.65411685 45.67163195 -3 44 C-2.65533691 43.1342334 -2.31067383 42.2684668 -1.95556641 41.37646484 C-0.77758152 37.21409105 -0.64806355 33.40548441 -0.5859375 29.1015625 C-0.56657135 28.26660248 -0.5472052 27.43164246 -0.5272522 26.57138062 C-0.46780386 23.92268874 -0.42121106 21.27395257 -0.375 18.625 C-0.33678818 16.82159636 -0.29773461 15.01821034 -0.2578125 13.21484375 C-0.16055725 8.80999117 -0.08071447 4.40531055 0 0 Z " fill="#030307" transform="translate(186,180)"/>
<path d="M0 0 C2.51607484 -0.03100594 4.82483251 0.151872 7.29956055 0.59204102 C5.77218294 6.01984054 3.22014084 10.47369161 0.36206055 15.27954102 C-0.63806304 16.98389559 -1.63805956 18.68832472 -2.63793945 20.39282227 C-3.1484082 21.25858887 -3.65887695 22.12435547 -4.18481445 23.01635742 C-6.52219513 26.98854914 -8.83049516 30.97740895 -11.13793945 34.96704102 C-11.58258545 35.73443604 -12.02723145 36.50183105 -12.48535156 37.29248047 C-16.59710766 44.39500505 -20.66831161 51.52055499 -24.72949219 58.65209961 C-27.01257811 62.65766294 -29.30192032 66.65393189 -31.70043945 70.59204102 C-28.40043945 70.92204102 -25.10043945 71.25204102 -21.70043945 71.59204102 C-21.37043945 70.27204102 -21.04043945 68.95204102 -20.70043945 67.59204102 C-19.93074617 66.04191374 -19.10835193 64.51746129 -18.2512207 63.01391602 C-17.73954346 62.11181396 -17.22786621 61.20971191 -16.70068359 60.28027344 C-15.86525024 58.82584839 -15.86525024 58.82584839 -15.01293945 57.34204102 C-14.15140259 55.83057495 -14.15140259 55.83057495 -13.27246094 54.28857422 C-7.34662576 43.91776199 -1.35436059 33.58362836 4.70922852 23.29272461 C5.80325529 21.4348609 6.89044494 19.57295952 7.97192383 17.70776367 C8.50414551 16.79945801 9.03636719 15.89115234 9.5847168 14.95532227 C10.29640015 13.73196167 10.29640015 13.73196167 11.02246094 12.48388672 C12.29956055 10.59204102 12.29956055 10.59204102 14.29956055 9.59204102 C17.37768555 14.97875977 17.37768555 14.97875977 18.35525513 16.6895752 C20.15500438 19.83923027 21.95492007 22.98879005 23.75512695 26.13818359 C27.06751305 31.93342598 30.37903069 37.72913658 33.68237305 43.52954102 C34.67963955 45.27961472 35.67702957 47.02961805 36.67456055 48.77954102 C37.38926514 50.03383911 37.38926514 50.03383911 38.1184082 51.31347656 C41.73490368 57.64390302 45.42147977 63.93143592 49.17993164 70.17871094 C51.23277761 73.62391071 52.79845129 76.83926786 54.29956055 80.59204102 C44.06956055 80.59204102 33.83956055 80.59204102 23.29956055 80.59204102 C21.19581055 76.90016602 19.09206055 73.20829102 16.92456055 69.40454102 C16.26407715 68.24929932 15.60359375 67.09405762 14.9230957 65.90380859 C14.40021973 64.98237061 13.87734375 64.06093262 13.33862305 63.11157227 C12.80446777 62.17418213 12.2703125 61.23679199 11.7199707 60.27099609 C10.37922292 57.74228771 9.21237809 55.30494405 8.29956055 52.59204102 C9.20893558 49.8900474 10.69903607 47.99282773 12.29956055 45.59204102 C16.65000725 47.04218992 17.68669625 50.3764588 19.73706055 54.21704102 C20.50640708 55.62599606 21.275937 57.03485098 22.0456543 58.44360352 C22.41803223 59.13486328 22.79041016 59.82612305 23.17407227 60.53833008 C24.27426481 62.54588316 25.42348897 64.51777179 26.5847168 66.49047852 C28.29956055 69.59204102 28.29956055 69.59204102 28.29956055 71.59204102 C33.24956055 71.09704102 33.24956055 71.09704102 38.29956055 70.59204102 C37.85676758 69.84744629 37.41397461 69.10285156 36.95776367 68.33569336 C22.13594138 43.40002094 22.13594138 43.40002094 17.29956055 35.02954102 C16.70143555 33.99700195 16.10331055 32.96446289 15.48706055 31.90063477 C14.29956055 29.59204102 14.29956055 29.59204102 14.29956055 27.59204102 C13.63956055 27.59204102 12.97956055 27.59204102 12.29956055 27.59204102 C12.12324097 28.45067749 12.12324097 28.45067749 11.94335938 29.32666016 C11.24845629 31.77186521 10.27441153 33.64147019 8.9987793 35.83813477 C8.28334961 37.07926025 8.28334961 37.07926025 7.5534668 38.34545898 C7.03655273 39.23120605 6.51963867 40.11695313 5.98706055 41.02954102 C4.89707665 42.9161788 3.80723721 44.80290006 2.7175293 46.68969727 C1.87327393 48.14593506 1.87327393 48.14593506 1.01196289 49.6315918 C-1.74545067 54.39868572 -4.47186675 59.18340136 -7.20043945 63.96704102 C-8.16903557 65.66244144 -9.13777763 67.3577585 -10.10668945 69.05297852 C-10.51209961 69.76244629 -10.91750977 70.47191406 -11.33520508 71.20288086 C-13.12361654 74.33260091 -14.91202799 77.46232096 -16.70043945 80.59204102 C-26.93043945 80.59204102 -37.16043945 80.59204102 -47.70043945 80.59204102 C-45.45158908 73.8454899 -45.45158908 73.8454899 -43.7043457 70.95532227 C-43.12305908 69.98212036 -43.12305908 69.98212036 -42.5300293 68.98925781 C-41.90281982 67.957323 -41.90281982 67.957323 -41.26293945 66.90454102 C-40.34953157 65.37628198 -39.43679411 63.84762208 -38.5246582 62.31860352 C-38.05463379 61.53388672 -37.58460938 60.74916992 -37.1003418 59.94067383 C-34.89370593 56.23857459 -32.73238106 52.51075098 -30.57543945 48.77954102 C-30.13506348 48.01883301 -29.6946875 47.258125 -29.2409668 46.47436523 C-26.36425737 41.49640718 -23.50686541 36.50754929 -20.6574707 31.51391602 C-20.30547607 30.89716507 -19.95348145 30.28041412 -19.59082031 29.64497375 C-17.84477256 26.58498927 -16.10024464 23.52415328 -14.3581543 20.46191406 C-13.07776493 18.21540692 -11.79107069 15.97247845 -10.49731445 13.73364258 C-9.32799615 11.68924205 -8.1856989 9.62906786 -7.07543945 7.55200195 C-6.57399414 6.64095703 -6.07254883 5.72991211 -5.5559082 4.79125977 C-4.91818481 3.59182739 -4.91818481 3.59182739 -4.26757812 2.36816406 C-2.70043945 0.59204102 -2.70043945 0.59204102 0 0 Z " fill="#040408" transform="translate(552.700439453125,179.407958984375)"/>
<path d="M0 0 C28.71 0 57.42 0 87 0 C87 8.58 87 17.16 87 26 C80.07 26 73.14 26 66 26 C66 23.36 66 20.72 66 18 C69.96 18 73.92 18 78 18 C78 14.7 78 11.4 78 8 C55.23 8.33 32.46 8.66 9 9 C8.67 11.64 8.34 14.28 8 17 C18.23 17 28.46 17 39 17 C39 34.82 39 52.64 39 71 C41.97 71 44.94 71 48 71 C48 53.18 48 35.36 48 17 C50.97 17 53.94 17 57 17 C57 37.79 57 58.58 57 80 C48.09 80 39.18 80 30 80 C30 62.18 30 44.36 30 26 C20.1 26 10.2 26 0 26 C0 17.42 0 8.84 0 0 Z " fill="#020206" transform="translate(431,180)"/>
<path d="M0 0 C3.35503067 2.41029279 6.29582288 4.97963121 9.0625 8.0625 C10.0525 9.1453125 10.0525 9.1453125 11.0625 10.25 C18.246552 20.35257312 21.28847954 30.71075611 20.0625 43.0625 C17.18864041 55.96221065 10.78325727 66.28650009 0.0625 74.0625 C-11.60456262 80.53733343 -25.38801925 82.39786799 -38.4375 79 C-48.86893864 75.14646167 -58.02098563 66.91213634 -63.25 57.125 C-63.84284952 55.78384264 -64.40491073 54.42870726 -64.9375 53.0625 C-65.23527344 52.32644531 -65.53304687 51.59039062 -65.83984375 50.83203125 C-69.72682508 39.85175679 -68.86887737 29.43507395 -64.296875 18.83984375 C-62.74625683 15.67177042 -61.10983331 12.84580205 -58.9375 10.0625 C-58.23625 9.093125 -57.535 8.12375 -56.8125 7.125 C-42.45223134 -9.45458291 -18.02859645 -11.51331159 0 0 Z M-51.9375 15.0625 C-58.39570639 23.26003598 -59.75158969 31.80759606 -58.9375 42.0625 C-57.42817602 51.35170302 -52.50487118 59.38556823 -45.3125 65.4375 C-37.94231057 70.4749887 -27.84740461 73.51224719 -18.9375 72.0625 C-8.84663437 69.86285627 -0.55148534 65.58240096 5.203125 56.79296875 C10.45493981 47.28206021 12.9023976 39.00034393 10.37890625 28.11328125 C6.89226351 17.74015741 0.75136992 9.90117329 -9.0625 4.8125 C-24.79814626 -2.89733471 -40.70757752 2.97487473 -51.9375 15.0625 Z " fill="#040408" transform="translate(290.9375,182.9375)"/>
<path d="M0 0 C7.62491 6.099928 12.87399209 13.57557737 14.8125 23.25 C15.89013333 35.298294 12.49850714 44.93741925 4.8125 54.25 C-1.56802654 60.67344488 -10.60831707 64.25275646 -19.625 64.75 C-29.73395152 64.18125681 -39.09746859 60.49758766 -46.1875 53.25 C-53.12481171 45.04720066 -55.87900139 35.94231104 -55.5234375 25.26171875 C-54.39051167 15.10490697 -49.75032404 7.97773771 -42.1875 1.25 C-28.61984701 -8.5234777 -14.36229429 -7.88518118 0 0 Z M-35.1875 7.25 C-36.074375 7.806875 -36.96125 8.36375 -37.875 8.9375 C-43.53252048 14.59502048 -46.26289263 21.46997477 -46.5625 29.375 C-46.46669902 36.56007328 -44.0996239 41.95290449 -39.35546875 47.32421875 C-33.65831316 52.68426454 -28.06484018 55.30098549 -20.25 55.6875 C-12.5828367 55.41703258 -6.29953721 52.07852233 -0.69140625 46.96484375 C4.55802345 40.9791304 6.18843821 33.93361598 6.0859375 26.1640625 C5.41535679 19.01758807 2.03173949 13.5345359 -3.22265625 8.7578125 C-12.64898791 1.52408681 -25.21565111 0.4196405 -35.1875 7.25 Z " fill="#666A7D" transform="translate(287.1875,190.75)"/>
<path d="M0 0 C2.97 0 5.94 0 9 0 C9.09997246 4.64064472 9.17197966 9.28064272 9.21972656 13.92211914 C9.23966084 15.49612365 9.26681871 17.07005589 9.30175781 18.64379883 C9.55968294 30.57283581 8.9231723 41.31612275 1 51 C-6.54293491 58.80066617 -14.84594222 62.84596679 -25.6875 63.25 C-36.1678092 63.09427475 -43.62695407 59.30945959 -50.98046875 52.04296875 C-54.47654161 48.27297677 -56.84486543 45.13393143 -58 40 C-56.68 40.66 -55.36 41.32 -54 42 C-53.01 39.69 -52.02 37.38 -51 35 C-49.06318839 34.91892417 -47.1254066 34.86077525 -45.1875 34.8125 C-44.10855469 34.77769531 -43.02960938 34.74289063 -41.91796875 34.70703125 C-39 35 -39 35 -37.11328125 36.51171875 C-36.74589844 37.00285156 -36.37851563 37.49398437 -36 38 C-36.66 38.99 -37.32 39.98 -38 41 C-38.66 39.35 -39.32 37.7 -40 36 C-43.3 36 -46.6 36 -50 36 C-45.90885233 43.36687759 -42.40160954 49.23956489 -34.20703125 52.453125 C-26.04481146 54.47562194 -18.35879226 53.67057739 -11.08984375 49.48828125 C-6.19027998 45.9990592 -3.32367761 41.52717469 -1 36 C-0.56111139 33.17829797 -0.51237339 30.39127532 -0.48828125 27.5390625 C-0.47033005 26.74849457 -0.45237885 25.95792664 -0.43388367 25.1434021 C-0.38003294 22.63732109 -0.34596719 20.13142773 -0.3125 17.625 C-0.27930452 15.91794278 -0.24481281 14.21091024 -0.20898438 12.50390625 C-0.12432148 8.33607347 -0.05739093 4.1682939 0 0 Z " fill="#616578" transform="translate(194,188)"/>
<path d="M0 0 C4.80949906 2.27136406 9.1596577 5.93905866 11 11 C11.70136414 16.96159517 11.5477133 21.96453597 8 27 C4.52964072 31.09695193 1.38059917 33.30905232 -4 34.0625 C-10.10489248 34.31262458 -14.1498003 32.56239086 -18.8125 28.625 C-22.85640808 23.77231031 -23.45456665 19.63239054 -23.31640625 13.43359375 C-22.67867515 8.52857551 -19.9540529 5.84047518 -16.375 2.6875 C-11.2633833 -0.94443818 -6.12216734 -0.81220243 0 0 Z " fill="#676C81" transform="translate(273,203)"/>
<path d="M0 0 C3.33537489 1.11179163 4.63707344 2.47411298 7 5 C7.33 3.68 7.66 2.36 8 1 C8.33 1.66 8.66 2.32 9 3 C10.98 3 12.96 3 15 3 C15 5.64 15 8.28 15 11 C13.0625 11.5625 13.0625 11.5625 11 12 C10 11 10 11 9.9375 7.9375 C9.958125 6.968125 9.97875 5.99875 10 5 C9.38125 5.61875 8.7625 6.2375 8.125 6.875 C4.45319189 10.54680811 2.82458271 11.93597955 -2.5625 12.125 C-6 12 -6 12 -8 11 C-10.3400417 11.28241883 -12.67504723 11.61250787 -15 12 C-15.33 11.01 -15.66 10.02 -16 9 C-15.34 9 -14.68 9 -14 9 C-14 7.02 -14 5.04 -14 3 C-13.113125 3.020625 -12.22625 3.04125 -11.3125 3.0625 C-6.68037044 2.97510133 -3.88275595 2.58850397 0 0 Z " fill="#60647B" transform="translate(141,284)"/>
<path d="M0 0 C3 1 3 1 6 3 C6.99 2.67 7.98 2.34 9 2 C9 4.97 9 7.94 9 11 C7 11 5 11 3 11 C2.67 10.67 2.34 10.34 2 10 C1.67 10.66 1.34 11.32 1 12 C0.236875 11.835 -0.52625 11.67 -1.3125 11.5 C-4.03596236 10.90854604 -4.03596236 10.90854604 -7 11 C-7 8.03 -7 5.06 -7 2 C-6.01 2 -5.02 2 -4 2 C-4 2.66 -4 3.32 -4 4 C-2.68 2.68 -1.36 1.36 0 0 Z " fill="#686D7F" transform="translate(329,285)"/>
<path d="M0 0 C1.93681161 -0.08107583 3.8745934 -0.13922475 5.8125 -0.1875 C6.89144531 -0.22230469 7.97039062 -0.25710937 9.08203125 -0.29296875 C12 0 12 0 13.88671875 1.51171875 C14.25410156 2.00285156 14.62148437 2.49398437 15 3 C14.01 4.485 14.01 4.485 13 6 C12.34 4.35 11.68 2.7 11 1 C7.7 1 4.4 1 1 1 C1.433125 1.68707031 1.86625 2.37414062 2.3125 3.08203125 C3.1478125 4.43361328 3.1478125 4.43361328 4 5.8125 C4.556875 6.70582031 5.11375 7.59914062 5.6875 8.51953125 C7 11 7 11 7 14 C4.525 13.01 4.525 13.01 2 12 C2 11.34 2 10.68 2 10 C0.515 12.475 0.515 12.475 -1 15 C-4.48331435 11.98112756 -5.79157144 9.43090471 -7 5 C-5.02 5.99 -5.02 5.99 -3 7 C-2.01 4.69 -1.02 2.38 0 0 Z " fill="#5F6276" transform="translate(143,223)"/>
<path d="M0 0 C2.31 0.66 4.62 1.32 7 2 C6.01 2.33 5.02 2.66 4 3 C4 3.66 4 4.32 4 5 C4.99 5 5.98 5 7 5 C6.67 6.65 6.34 8.3 6 10 C1.16743695 9.58578031 -0.82679218 7.53586014 -4 4 C-3.01 3.67 -2.02 3.34 -1 3 C-0.67 2.01 -0.34 1.02 0 0 Z M-10 1 C-9.01 1 -8.02 1 -7 1 C-7 2.32 -7 3.64 -7 5 C-4.525 5.99 -4.525 5.99 -2 7 C-2.33 8.32 -2.66 9.64 -3 11 C-4.32 10.67 -5.64 10.34 -7 10 C-7 9.34 -7 8.68 -7 8 C-7.99 8 -8.98 8 -10 8 C-10.33 8.66 -10.66 9.32 -11 10 C-10.67 7.03 -10.34 4.06 -10 1 Z " fill="#6A7082" transform="translate(489,286)"/>
<path d="M0 0 C1.32 0 2.64 0 4 0 C4 3.3 4 6.6 4 10 C3.319375 9.814375 2.63875 9.62875 1.9375 9.4375 C-1.57232191 8.91476057 -4.52188063 9.38621423 -8 10 C-8.33 9.01 -8.66 8.02 -9 7 C-8.34 7 -7.68 7 -7 7 C-7 5.02 -7 3.04 -7 1 C-5.5459375 1.0309375 -5.5459375 1.0309375 -4.0625 1.0625 C-1.12534105 1.35618499 -1.12534105 1.35618499 0 0 Z " fill="#62667B" transform="translate(134,286)"/>
<path d="M0 0 C0.66 0 1.32 0 2 0 C2.33 1.98 2.66 3.96 3 6 C2.34 6 1.68 6 1 6 C1.66 7.65 2.32 9.3 3 11 C1.875 12.5 1.875 12.5 0 14 C-3.1875 14.1875 -3.1875 14.1875 -6 14 C-6.22893102 10.96666395 -6.35414522 8.02633186 -6 5 C-4.125 2.9375 -4.125 2.9375 -2 2 C-1.34 2 -0.68 2 0 2 C0 1.34 0 0.68 0 0 Z M3 6 C4 10 4 10 4 10 Z " fill="#5F6276" transform="translate(170,282)"/>
<path d="M0 0 C1.32 0.66 2.64 1.32 4 2 C3.64766839 7.4611399 3.64766839 7.4611399 3 10 C0.9375 11.5 0.9375 11.5 -1 12 C-1.33 11.67 -1.66 11.34 -2 11 C-3.66617115 10.95936168 -5.33388095 10.957279 -7 11 C-7 8.03 -7 5.06 -7 2 C-5.02 2 -3.04 2 -1 2 C-0.67 1.34 -0.34 0.68 0 0 Z " fill="#595D6E" transform="translate(267,285)"/>
<path d="M0 0 C0.99 0 1.98 0 3 0 C3.33 1.32 3.66 2.64 4 4 C3.34 4 2.68 4 2 4 C2 6.64 2 9.28 2 12 C-1 12 -4 12 -7 12 C-7 10.02 -7 8.04 -7 6 C-6.34 6 -5.68 6 -5 6 C-4.34 4.35 -3.68 2.7 -3 1 C-2.34 2.32 -1.68 3.64 -1 5 C-0.67 3.35 -0.34 1.7 0 0 Z " fill="#727689" transform="translate(564,283)"/>
<path d="M0 0 C0.5775 0.639375 1.155 1.27875 1.75 1.9375 C4.02530538 4.0231966 5.0495394 4.50825657 8 5 C8.66 5.33 9.32 5.66 10 6 C10.625 8.0625 10.625 8.0625 11 10 C6.94134068 10.85445459 3.98070796 11.32690265 0 10 C-1.75 8.4375 -1.75 8.4375 -3 7 C-1.125 1.125 -1.125 1.125 0 0 Z " fill="#64677D" transform="translate(145,232)"/>
<path d="M0 0 C4 0 4 0 7 1 C7 3.31 7 5.62 7 8 C7.66 8 8.32 8 9 8 C9 8.66 9 9.32 9 10 C7.68 10 6.36 10 5 10 C4.67 8.35 4.34 6.7 4 5 C1.12909413 5.39598702 0.21084873 5.7323843 -1.625 8.0625 C-2.305625 9.0215625 -2.305625 9.0215625 -3 10 C-3.66 10 -4.32 10 -5 10 C-5 7.03 -5 4.06 -5 1 C-3.68 1 -2.36 1 -1 1 C-0.67 0.67 -0.34 0.34 0 0 Z " fill="#494F62" transform="translate(292,286)"/>
<path d="M0 0 C2.625 0.375 2.625 0.375 5 1 C7.125 7.75 7.125 7.75 6 10 C5.01 9.34 4.02 8.68 3 8 C2.2575 8.845625 1.515 9.69125 0.75 10.5625 C-0.1575 11.366875 -1.065 12.17125 -2 13 C-4.3125 12.8125 -4.3125 12.8125 -6 12 C-5.01 12 -4.02 12 -3 12 C-2.95101562 11.30132812 -2.90203125 10.60265625 -2.8515625 9.8828125 C-2.77679687 8.97273438 -2.70203125 8.06265625 -2.625 7.125 C-2.55539062 6.22007812 -2.48578125 5.31515625 -2.4140625 4.3828125 C-2 2 -2 2 0 0 Z " fill="#727687" transform="translate(570,287)"/>
<path d="M0 0 C-0.375 2.9375 -0.375 2.9375 -1 6 C-1.99 6.495 -1.99 6.495 -3 7 C-3 8.98 -3 10.96 -3 13 C-5.31 12.67 -7.62 12.34 -10 12 C-10 9.66666667 -10 7.33333333 -10 5 C-9.01 4.67 -8.02 4.34 -7 4 C-7 3.01 -7 2.02 -7 1 C-2.25 0 -2.25 0 0 0 Z M-9 6 C-8 8 -8 8 -8 8 Z " fill="#60667B" transform="translate(131,281)"/>
<path d="M0 0 C0.33 0.66 0.66 1.32 1 2 C1.99 2.33 2.98 2.66 4 3 C3.01 3.33 2.02 3.66 1 4 C1 6.31 1 8.62 1 11 C-2.465 12.485 -2.465 12.485 -6 14 C-6 12.02 -6 10.04 -6 8 C-5.01 8 -4.02 8 -3 8 C-3.33 5.69 -3.66 3.38 -4 1 C-2.68 0.67 -1.36 0.34 0 0 Z " fill="#737689" transform="translate(588,281)"/>
<path d="M0 0 C1.65 0.99 3.3 1.98 5 3 C4.01 3.495 4.01 3.495 3 4 C2.566875 5.155 2.13375 6.31 1.6875 7.5 C0.8521875 9.2325 0.8521875 9.2325 0 11 C-2.6875 11.9375 -2.6875 11.9375 -5 12 C-5.84290621 9.63986261 -6.13867449 8.40341668 -5.3125 6 C-3.79011344 3.68017287 -2.02428577 1.88933339 0 0 Z " fill="#656980" transform="translate(185,236)"/>
<path d="M0 0 C0.66 0 1.32 0 2 0 C2 1.32 2 2.64 2 4 C2.61875 3.34 3.2375 2.68 3.875 2 C6 0 6 0 8 0 C8 2.97 8 5.94 8 9 C5.36 8.67 2.72 8.34 0 8 C0 5.36 0 2.72 0 0 Z " fill="#60667A" transform="translate(156,287)"/>
<path d="M0 0 C1.32 0 2.64 0 4 0 C4 2.64 4 5.28 4 8 C0.04 8 -3.92 8 -8 8 C-8.33 6.68 -8.66 5.36 -9 4 C-8.01 4.495 -8.01 4.495 -7 5 C-7 5.66 -7 6.32 -7 7 C-5.68 7 -4.36 7 -3 7 C-2.67 6.01 -2.34 5.02 -2 4 C-1.34 4 -0.68 4 0 4 C0 2.68 0 1.36 0 0 Z " fill="#757788" transform="translate(505,189)"/>
<path d="M0 0 C0.928125 0.103125 1.85625 0.20625 2.8125 0.3125 C2.1525 3.2825 1.4925 6.2525 0.8125 9.3125 C-2.1575 8.8175 -2.1575 8.8175 -5.1875 8.3125 C-6.1875 5.3125 -6.1875 5.3125 -5.125 2.625 C-3.1875 0.3125 -3.1875 0.3125 0 0 Z " fill="#383B4D" transform="translate(240.1875,286.6875)"/>
<path d="M0 0 C1.98 0 3.96 0 6 0 C5.67 1.65 5.34 3.3 5 5 C4.34 5 3.68 5 3 5 C3 5.66 3 6.32 3 7 C3.99 7 4.98 7 6 7 C6 7.66 6 8.32 6 9 C4.35 9 2.7 9 1 9 C0.67 8.34 0.34 7.68 0 7 C-1.32 7.33 -2.64 7.66 -4 8 C-2.68 5.36 -1.36 2.72 0 0 Z " fill="#353848" transform="translate(405,287)"/>
<path d="M0 0 C2 0 4 0 6 0 C6 2.97 6 5.94 6 9 C4.02 9 2.04 9 0 9 C0 6.03 0 3.06 0 0 Z " fill="#1A1B27" transform="translate(177,287)"/>
<path d="M0 0 C2 0 4 0 6 0 C6 2.97 6 5.94 6 9 C4.02 9 2.04 9 0 9 C0 6.03 0 3.06 0 0 Z " fill="#1D202D" transform="translate(589,287)"/>
<path d="M0 0 C0.33 0.99 0.66 1.98 1 3 C0.67 3.66 0.34 4.32 0 5 C0.66 5.33 1.32 5.66 2 6 C1.67 7.65 1.34 9.3 1 11 C0.01 11 -0.98 11 -2 11 C-3.70532323 12.94009522 -3.70532323 12.94009522 -5 15 C-5.76681614 7.33183857 -5.76681614 7.33183857 -3.88671875 4.06640625 C-2.5 2.4375 -2.5 2.4375 0 0 Z " fill="#737789" transform="translate(600,282)"/>
<path d="M0 0 C0.99 0.33 1.98 0.66 3 1 C3.680625 0.814375 4.36125 0.62875 5.0625 0.4375 C5.701875 0.293125 6.34125 0.14875 7 0 C7.66 0.66 8.32 1.32 9 2 C8.34 2.433125 7.68 2.86625 7 3.3125 C6.34 3.869375 5.68 4.42625 5 5 C5 5.99 5 6.98 5 8 C3.68 7.67 2.36 7.34 1 7 C0.67 7.66 0.34 8.32 0 9 C-1.125 6.75 -1.125 6.75 -2 4 C-1.125 1.6875 -1.125 1.6875 0 0 Z " fill="#5F657A" transform="translate(123,295)"/>
<path d="M0 0 C2.475 0.495 2.475 0.495 5 1 C5 3.64 5 6.28 5 9 C3.35 9 1.7 9 0 9 C0 6.03 0 3.06 0 0 Z " fill="#1F2232" transform="translate(309,287)"/>
<path d="M0 0 C2 0 4 0 6 0 C6 2.97 6 5.94 6 9 C4 9 2 9 0 9 C0 6.03 0 3.06 0 0 Z " fill="#151824" transform="translate(332,287)"/>
<path d="M0 0 C1.65 0 3.3 0 5 0 C5.33 2.97 5.66 5.94 6 9 C4.02 9 2.04 9 0 9 C0 6.03 0 3.06 0 0 Z " fill="#1B1E2C" transform="translate(164,287)"/>
<path d="M0 0 C2.475 0.495 2.475 0.495 5 1 C5 3.31 5 5.62 5 8 C3.35 8.33 1.7 8.66 0 9 C0 6.03 0 3.06 0 0 Z " fill="#101222" transform="translate(346,287)"/>
<path d="M0 0 C1.32 0 2.64 0 4 0 C4 2.97 4 5.94 4 9 C2.35 8.67 0.7 8.34 -1 8 C-1.04241723 5.66705225 -1.04092937 3.33297433 -1 1 C-0.67 0.67 -0.34 0.34 0 0 Z " fill="#222632" transform="translate(226,287)"/>
<path d="M0 0 C2.475 0.495 2.475 0.495 5 1 C5 3.31 5 5.62 5 8 C3.35 8.33 1.7 8.66 0 9 C0 6.03 0 3.06 0 0 Z " fill="#202333" transform="translate(138,287)"/>
<path d="M0 0 C2.0625 0.4375 2.0625 0.4375 4 1 C4.93065133 3.60582371 5.14917407 4.64198224 4.0625 7.25 C3.711875 7.8275 3.36125 8.405 3 9 C1.68 8.67 0.36 8.34 -1 8 C-1.04241723 5.66705225 -1.04092937 3.33297433 -1 1 C-0.67 0.67 -0.34 0.34 0 0 Z " fill="#1A1E2A" transform="translate(456,287)"/>
<path d="M0 0 C1.32 0 2.64 0 4 0 C4 2.64 4 5.28 4 8 C2.0625 8.5625 2.0625 8.5625 0 9 C-1 8 -1 8 -1.125 4.5 C-1 1 -1 1 0 0 Z " fill="#242733" transform="translate(577,287)"/>
<path d="M0 0 C2.475 0.495 2.475 0.495 5 1 C5 3.64 5 6.28 5 9 C3.35 9 1.7 9 0 9 C0 6.03 0 3.06 0 0 Z " fill="#171925" transform="translate(527,287)"/>
<path d="M0 0 C0.33 0.66 0.66 1.32 1 2 C1.66 2 2.32 2 3 2 C3.25 4.8125 3.25 4.8125 3 8 C1 9.875 1 9.875 -1 11 C-1 10.34 -1 9.68 -1 9 C-1.66 8.67 -2.32 8.34 -3 8 C-2.01 8 -1.02 8 0 8 C0 7.34 0 6.68 0 6 C-1.32 5.34 -2.64 4.68 -4 4 C-3.67 3.34 -3.34 2.68 -3 2 C-2.34 2 -1.68 2 -1 2 C-0.67 1.34 -0.34 0.68 0 0 Z " fill="#64697C" transform="translate(243,281)"/>
<path d="M0 0 C-0.4640625 1.1446875 -0.4640625 1.1446875 -0.9375 2.3125 C-1.67893593 4.18789677 -2.36228217 6.08684652 -3 8 C-3.99 8.495 -3.99 8.495 -5 9 C-4.34 9.33 -3.68 9.66 -3 10 C-3.33 10.99 -3.66 11.98 -4 13 C-5.32 12.67 -6.64 12.34 -8 12 C-7.57630928 10.3713449 -7.1355377 8.74712622 -6.6875 7.125 C-6.44386719 6.22007812 -6.20023438 5.31515625 -5.94921875 4.3828125 C-4.74864344 1.36902264 -3.36446473 0 0 0 Z " fill="#606477" transform="translate(215,225)"/>
<path d="M0 0 C0.66 0 1.32 0 2 0 C2 2.31 2 4.62 2 7 C2.66 7 3.32 7 4 7 C4 4.69 4 2.38 4 0 C4.66 0 5.32 0 6 0 C6 2.64 6 5.28 6 8 C4.34385343 8.38218767 2.67542976 8.71395102 1 9 C0 8 0 8 -0.09765625 6.15234375 C-0.06510417 4.1015625 -0.03255208 2.05078125 0 0 Z " fill="#17192A" transform="translate(273,287)"/>
<path d="M0 0 C1.32 0.33 2.64 0.66 4 1 C3.34 1 2.68 1 2 1 C2 1.99 2 2.98 2 4 C2.66 4 3.32 4 4 4 C4.33 3.34 4.66 2.68 5 2 C5 4.31 5 6.62 5 9 C3.35 9 1.7 9 0 9 C0 6.03 0 3.06 0 0 Z " fill="#151826" transform="translate(260,287)"/>
<path d="M0 0 C2.475 0.495 2.475 0.495 5 1 C5 3.31 5 5.62 5 8 C3.35 8.33 1.7 8.66 0 9 C0.33 8.01 0.66 7.02 1 6 C1.66 6.33 2.32 6.66 3 7 C3 6.34 3 5.68 3 5 C2.01 5 1.02 5 0 5 C0 3.35 0 1.7 0 0 Z " fill="#1D202D" transform="translate(603,287)"/>
<path d="M0 0 C0.61875 0.268125 1.2375 0.53625 1.875 0.8125 C2.205 1.8025 2.535 2.7925 2.875 3.8125 C-0.375 5.4375 -0.375 5.4375 -4.125 6.8125 C-6.5625 6 -6.5625 6 -8.125 4.8125 C-7.465 4.4825 -6.805 4.1525 -6.125 3.8125 C-5.795 3.1525 -5.465 2.4925 -5.125 1.8125 C-2.125 -0.1875 -2.125 -0.1875 0 0 Z " fill="#696D81" transform="translate(253.125,242.1875)"/>
<path d="M0 0 C0.680625 -0.01224609 1.36125 -0.02449219 2.0625 -0.03710938 C3.83490756 -0.04236355 5.6067994 0.06534094 7.375 0.1875 C8.035 0.8475 8.695 1.5075 9.375 2.1875 C4.87562004 2.86240699 1.75653923 3.28288481 -2.625 2.1875 C-5.32132517 2.39129202 -7.94750383 2.78587557 -10.625 3.1875 C-10.955 2.5275 -11.285 1.8675 -11.625 1.1875 C-7.79921227 -0.03871401 -3.97522923 0.00380769 0 0 Z " fill="#616471" transform="translate(266.625,184.8125)"/>
<path d="M0 0 C0.66 0 1.32 0 2 0 C2 1.32 2 2.64 2 4 C2.66 4 3.32 4 4 4 C4.33 4.66 4.66 5.32 5 6 C7.01669827 7.13350534 7.01669827 7.13350534 9 8 C8.67 8.66 8.34 9.32 8 10 C7.236875 9.835 6.47375 9.67 5.6875 9.5 C2.96403764 8.90854604 2.96403764 8.90854604 0 9 C0 6.03 0 3.06 0 0 Z " fill="#3C4053" transform="translate(322,287)"/>
<path d="M0 0 C1.65 0 3.3 0 5 0 C5 2.64 5 5.28 5 8 C3.0625 8.5625 3.0625 8.5625 1 9 C0 8 0 8 -0.09765625 6.15234375 C-0.06510417 4.1015625 -0.03255208 2.05078125 0 0 Z " fill="#121525" transform="translate(151,287)"/>
<path d="M0 0 C1.32 0 2.64 0 4 0 C4 2.97 4 5.94 4 9 C3.67 8.34 3.34 7.68 3 7 C2.34 7 1.68 7 1 7 C1 7.66 1 8.32 1 9 C0.34 9 -0.32 9 -1 9 C-0.67 6.03 -0.34 3.06 0 0 Z " fill="#141826" transform="translate(382,287)"/>
<path d="M0 0 C0.66 0 1.32 0 2 0 C2.33 0.66 2.66 1.32 3 2 C3.66 1.34 4.32 0.68 5 0 C5 2.64 5 5.28 5 8 C3.35 8.33 1.7 8.66 0 9 C0 6.03 0 3.06 0 0 Z " fill="#090C17" transform="translate(419,287)"/>
<path d="M0 0 C0.99 0 1.98 0 3 0 C3.33 2.97 3.66 5.94 4 9 C2.35 9 0.7 9 -1 9 C-0.67 6.03 -0.34 3.06 0 0 Z " fill="#151723" transform="translate(541,287)"/>
<path d="M0 0 C2.475 0.495 2.475 0.495 5 1 C4.67 2.65 4.34 4.3 4 6 C3.34 6 2.68 6 2 6 C2 6.99 2 7.98 2 9 C1.34 9 0.68 9 0 9 C0 6.03 0 3.06 0 0 Z " fill="#141925" transform="translate(504,287)"/>
<path d="M0 0 C-1.5885342 4.28904235 -4.43127368 6.32345526 -8 9 C-8.66 9 -9.32 9 -10 9 C-8.9789114 5.32408105 -8.08564783 4.0660202 -5 1.6875 C-2 0 -2 0 0 0 Z " fill="#646976" transform="translate(282,227)"/>
<path d="M0 0 C0.763125 0.804375 1.52625 1.60875 2.3125 2.4375 C4.79430898 5.16799024 4.79430898 5.16799024 8 6 C7.34 7.65 6.68 9.3 6 11 C3 10 3 10 1.3125 7.1875 C0 4 0 4 0 0 Z " fill="#757786" transform="translate(583,214)"/>
<path d="M0 0 C1.1875 1.6875 1.1875 1.6875 2 4 C0.75 6.5625 0.75 6.5625 -1 9 C-1.99 10.485 -1.99 10.485 -3 12 C-3.66 10.02 -4.32 8.04 -5 6 C-4.34 6 -3.68 6 -3 6 C-2.67 4.68 -2.34 3.36 -2 2 C-1.34 2 -0.68 2 0 2 C0 1.34 0 0.68 0 0 Z " fill="#74788C" transform="translate(531,235)"/>
<path d="M0 0 C0.66 0 1.32 0 2 0 C6 6.75 6 6.75 6 9 C3 8 3 8 1 6 C-1.10820797 6.3185177 -1.10820797 6.3185177 -3 7 C-2.01 4.69 -1.02 2.38 0 0 Z " fill="#6D6F7E" transform="translate(565,207)"/>
<path d="M0 0 C0 1.65 0 3.3 0 5 C-0.99 5 -1.98 5 -3 5 C-3 5.66 -3 6.32 -3 7 C-3.99 6.67 -4.98 6.34 -6 6 C-6.33 4.35 -6.66 2.7 -7 1 C-4.53721199 -0.231394 -2.7204945 -0.07159196 0 0 Z " fill="#73778A" transform="translate(527,216)"/>
<path d="M0 0 C0.99 0 1.98 0 3 0 C3.33 2.97 3.66 5.94 4 9 C3.67 8.34 3.34 7.68 3 7 C2.01 7 1.02 7 0 7 C-0.33 7.66 -0.66 8.32 -1 9 C-0.67 6.03 -0.34 3.06 0 0 Z " fill="#0F101C" transform="translate(479,287)"/>
<path d="M0 0 C1.98 0.495 1.98 0.495 4 1 C3.01 1.33 2.02 1.66 1 2 C1 2.66 1 3.32 1 4 C1.99 4 2.98 4 4 4 C3.67 5.65 3.34 7.3 3 9 C1.68 8.67 0.36 8.34 -1 8 C-0.67 7.34 -0.34 6.68 0 6 C0.66 6.33 1.32 6.66 2 7 C2 6.34 2 5.68 2 5 C1.01 5 0.02 5 -1 5 C-0.67 3.35 -0.34 1.7 0 0 Z " fill="#111421" transform="translate(492,287)"/>
<path d="M0 0 C0.66 0.33 1.32 0.66 2 1 C1.67 2.65 1.34 4.3 1 6 C0.34 6 -0.32 6 -1 6 C-1.66 7.32 -2.32 8.64 -3 10 C-3.66 9.67 -4.32 9.34 -5 9 C-5 8.01 -5 7.02 -5 6 C-4.34 6 -3.68 6 -3 6 C-3.33 4.68 -3.66 3.36 -4 2 C-2.125 0.9375 -2.125 0.9375 0 0 Z " fill="#777A8D" transform="translate(566,212)"/>
<path d="M0 0 C0.99 0.33 1.98 0.66 3 1 C2.49287967 4.71888239 1.88391785 7.73454239 0 11 C-0.99 10.67 -1.98 10.34 -3 10 C-2 7 -2 7 0 5 C-0.40929986 2.94603274 -0.40929986 2.94603274 -1 1 C-0.67 0.67 -0.34 0.34 0 0 Z " fill="#636778" transform="translate(227,192)"/>
<path d="M0 0 C1.32 0 2.64 0 4 0 C4 0.66 4 1.32 4 2 C3.34 2 2.68 2 2 2 C2 2.66 2 3.32 2 4 C2.66 4.33 3.32 4.66 4 5 C3.34 5 2.68 5 2 5 C2 5.66 2 6.32 2 7 C2.66 7 3.32 7 4 7 C4 7.66 4 8.32 4 9 C2.68 9 1.36 9 0 9 C0 6.03 0 3.06 0 0 Z " fill="#0C0F1C" transform="translate(191,287)"/>
<path d="M0 0 C2.51236985 2.40313638 3.95013095 3.78319518 4.09765625 7.3828125 C4.08605469 8.28773438 4.07445312 9.19265625 4.0625 10.125 C4.05347656 11.03507813 4.04445313 11.94515625 4.03515625 12.8828125 C4.02355469 13.58148438 4.01195312 14.28015625 4 15 C3.34 15 2.68 15 2 15 C2 12.03 2 9.06 2 6 C1.01 6.33 0.02 6.66 -1 7 C-0.67 4.69 -0.34 2.38 0 0 Z " fill="#676A78" transform="translate(401,192)"/>
<path d="M0 0 C1.31896465 0.92838287 2.62998689 1.86805732 3.9375 2.8125 C4.66839844 3.33457031 5.39929688 3.85664063 6.15234375 4.39453125 C8 6 8 6 9 9 C4.74822077 8.52758009 2.70030797 6.15035929 0 3 C0 2.01 0 1.02 0 0 Z " fill="#616375" transform="translate(136,246)"/>
<path d="M0 0 C0.33 0.66 0.66 1.32 1 2 C3.52733235 2.65555119 3.52733235 2.65555119 6 3 C6 5.31 6 7.62 6 10 C4 8.75 4 8.75 2 7 C2 5.68 2 4.36 2 3 C1.34 3 0.68 3 0 3 C0 2.01 0 1.02 0 0 Z " fill="#606578" transform="translate(340,285)"/>
<path d="M0 0 C1.98 0 3.96 0 6 0 C6 0.66 6 1.32 6 2 C5.34 2 4.68 2 4 2 C4 4.31 4 6.62 4 9 C3.34 9 2.68 9 2 9 C2 6.69 2 4.38 2 2 C1.34 2 0.68 2 0 2 C0 1.34 0 0.68 0 0 Z " fill="#131928" transform="translate(432,287)"/>
<path d="M0 0 C1.125 3.75 1.125 3.75 0 6 C-0.66 6 -1.32 6 -2 6 C-2.33 6.66 -2.66 7.32 -3 8 C-3.99 8 -4.98 8 -6 8 C-5.65120368 4.74456771 -4.97866739 3.98126893 -2.4375 1.75 C-1.633125 1.1725 -0.82875 0.595 0 0 Z " fill="#626576" transform="translate(199,247)"/>
<path d="M0 0 C0.99 0 1.98 0 3 0 C3 2.64 3 5.28 3 8 C1.68 8.33 0.36 8.66 -1 9 C-1.33 8.01 -1.66 7.02 -2 6 C-1.34 6 -0.68 6 0 6 C0 4.02 0 2.04 0 0 Z " fill="#0F1427" transform="translate(127,287)"/>
<path d="M0 0 C1.65 0 3.3 0 5 0 C4.67 2.97 4.34 5.94 4 9 C3.34 9 2.68 9 2 9 C1.34 6.03 0.68 3.06 0 0 Z " fill="#131525" transform="translate(203,287)"/>
<path d="M0 0 C0.33 0.66 0.66 1.32 1 2 C2.32 2 3.64 2 5 2 C5 1.34 5 0.68 5 0 C7.7839183 1.39195915 7.97898997 3.15575779 9 6 C6.03 5.01 3.06 4.02 0 3 C0 2.01 0 1.02 0 0 Z " fill="#5C6171" transform="translate(248,247)"/>
<path d="M0 0 C0.99 0.99 1.98 1.98 3 3 C2.34 4.32 1.68 5.64 1 7 C0.01 7 -0.98 7 -2 7 C-2.33 5.02 -2.66 3.04 -3 1 C-2.01 0.67 -1.02 0.34 0 0 Z " fill="#72768B" transform="translate(583,295)"/>
<path d="M0 0 C1.65 0 3.3 0 5 0 C4.67 2.97 4.34 5.94 4 9 C3.34 9 2.68 9 2 9 C2 6.69 2 4.38 2 2 C1.34 2 0.68 2 0 2 C0 1.34 0 0.68 0 0 Z " fill="#131529" transform="translate(368,287)"/>
<path d="M0 0 C0.66 0.66 1.32 1.32 2 2 C0.35 3.65 -1.3 5.3 -3 7 C-4.0625 5.125 -4.0625 5.125 -5 3 C-4 1 -4 1 -2.0625 0.25 C-1.381875 0.1675 -0.70125 0.085 0 0 Z " fill="#626677" transform="translate(181,224)"/>
<path d="M0 0 C0.66 0 1.32 0 2 0 C2 2.31 2 4.62 2 7 C2.99 7.33 3.98 7.66 5 8 C3.35 8.33 1.7 8.66 0 9 C0 6.03 0 3.06 0 0 Z " fill="#191C2E" transform="translate(394,287)"/>
<path d="M0 0 C0.66 0.33 1.32 0.66 2 1 C0.515 3.475 0.515 3.475 -1 6 C-2.65 5.67 -4.3 5.34 -6 5 C-2.25 1.125 -2.25 1.125 0 0 Z " fill="#636776" transform="translate(261,203)"/>
<path d="M0 0 C0.66 0.66 1.32 1.32 2 2 C1.34 2 0.68 2 0 2 C-0.33 3.98 -0.66 5.96 -1 8 C-1.66 8 -2.32 8 -3 8 C-3.33 8.66 -3.66 9.32 -4 10 C-4.33 9.01 -4.66 8.02 -5 7 C-4.00390625 5.17578125 -4.00390625 5.17578125 -2.5625 3.3125 C-2.08941406 2.68988281 -1.61632812 2.06726563 -1.12890625 1.42578125 C-0.75636719 0.95527344 -0.38382813 0.48476562 0 0 Z " fill="#5E626F" transform="translate(240,197)"/>
<path d="M0 0 C0.66 0 1.32 0 2 0 C2 2.31 2 4.62 2 7 C2.66 7 3.32 7 4 7 C4 7.66 4 8.32 4 9 C2.68 9 1.36 9 0 9 C0 6.03 0 3.06 0 0 Z " fill="#101424" transform="translate(297,287)"/>
<path d="M0 0 C1.77007714 -0.08114106 3.54122098 -0.13925505 5.3125 -0.1875 C6.29863281 -0.22230469 7.28476563 -0.25710937 8.30078125 -0.29296875 C11 0 11 0 12.85546875 1.51171875 C13.23316406 2.00285156 13.61085937 2.49398437 14 3 C13.01 4.485 13.01 4.485 12 6 C11.34 4.35 10.68 2.7 10 1 C6.7 1 3.4 1 0 1 C0 0.67 0 0.34 0 0 Z " fill="#4E505F" transform="translate(144,223)"/>
<path d="M0 0 C2.475 0.495 2.475 0.495 5 1 C5 1.99 5 2.98 5 4 C4.01 4.495 4.01 4.495 3 5 C3 5.66 3 6.32 3 7 C2.34 7 1.68 7 1 7 C0.67 4.69 0.34 2.38 0 0 Z " fill="#363948" transform="translate(346,287)"/>
<path d="M0 0 C-1.14453125 1.51953125 -1.14453125 1.51953125 -3 3 C-5.69921875 3.07421875 -5.69921875 3.07421875 -8.6875 2.6875 C-10.17830078 2.50767578 -10.17830078 2.50767578 -11.69921875 2.32421875 C-12.45847656 2.21722656 -13.21773437 2.11023438 -14 2 C-14 1.67 -14 1.34 -14 1 C-12.04310963 0.63794536 -10.08442332 0.28558579 -8.125 -0.0625 C-7.03445312 -0.25972656 -5.94390625 -0.45695313 -4.8203125 -0.66015625 C-2 -1 -2 -1 0 0 Z " fill="#5A5E6D" transform="translate(180,241)"/>
<path d="M0 0 C2.90878214 1.06655345 3.83560524 1.67121048 5.25 4.5 C6 7 6 7 6 9 C5.34 9 4.68 9 4 9 C0 2.25 0 2.25 0 0 Z " fill="#0C0E14" transform="translate(561,232)"/>
<path d="M0 0 C0 0.99 0 1.98 0 3 C-4.43076923 5.09230769 -4.43076923 5.09230769 -7.3125 4.625 C-7.869375 4.41875 -8.42625 4.2125 -9 4 C-6.01353231 2.00902154 -3.40312738 1.05875074 0 0 Z " fill="#5C5F6E" transform="translate(188,255)"/>
<path d="M0 0 C1.5625 1.8125 1.5625 1.8125 3 4 C2.67 4.99 2.34 5.98 2 7 C1.01 7.33 0.02 7.66 -1 8 C-2 6 -2 6 -1.0625 2.875 C-0.5365625 1.451875 -0.5365625 1.451875 0 0 Z " fill="#626677" transform="translate(227,238)"/>
<path d="M0 0 C0.66 1.32 1.32 2.64 2 4 C0 6 0 6 -2.625 6.125 C-3.40875 6.08375 -4.1925 6.0425 -5 6 C-3.35 4.02 -1.7 2.04 0 0 Z " fill="#616775" transform="translate(246,191)"/>
<path d="M0 0 C1.32 0 2.64 0 4 0 C4 2.97 4 5.94 4 9 C3.67 9 3.34 9 3 9 C2.67 7.35 2.34 5.7 2 4 C1.34 4 0.68 4 0 4 C0 2.68 0 1.36 0 0 Z " fill="#56596C" transform="translate(134,286)"/>
<path d="M0 0 C0.99 0.33 1.98 0.66 3 1 C3.6875 3.0625 3.6875 3.0625 4 5 C3.01 5.495 3.01 5.495 2 6 C2 5.34 2 4.68 2 4 C1.01 4.33 0.02 4.66 -1 5 C-1 4.34 -1 3.68 -1 3 C-1.66 2.67 -2.32 2.34 -3 2 C-2.01 1.34 -1.02 0.68 0 0 Z " fill="#74788A" transform="translate(539,257)"/>
<path d="M0 0 C0.639375 0.2475 1.27875 0.495 1.9375 0.75 C2.2675 1.74 2.5975 2.73 2.9375 3.75 C1.6175 4.08 0.2975 4.41 -1.0625 4.75 C-2.0525 3.43 -3.0425 2.11 -4.0625 0.75 C-2.0625 -0.25 -2.0625 -0.25 0 0 Z " fill="#61687A" transform="translate(291.0625,257.25)"/>
<path d="M0 0 C1.98 0 3.96 0 6 0 C3.51047079 2.66735273 1.36591866 4.55746343 -2 6 C-1.34 4.02 -0.68 2.04 0 0 Z " fill="#616472" transform="translate(241,180)"/>
<path d="M0 0 C0.99 0 1.98 0 3 0 C3 1.98 3 3.96 3 6 C1.68 5.34 0.36 4.68 -1 4 C-0.67 2.68 -0.34 1.36 0 0 Z " fill="#75788A" transform="translate(547,176)"/>
<path d="M0 0 C0.99 0 1.98 0 3 0 C2.34 1.32 1.68 2.64 1 4 C-1.97 3.505 -1.97 3.505 -5 3 C-5 2.67 -5 2.34 -5 2 C-3.35 2 -1.7 2 0 2 C0 1.34 0 0.68 0 0 Z M-7 3 C-6.34 3 -5.68 3 -5 3 C-5.33 3.66 -5.66 4.32 -6 5 C-6.33 4.34 -6.66 3.68 -7 3 Z " fill="#71768A" transform="translate(520,284)"/>
<path d="M0 0 C0.66 0 1.32 0 2 0 C1.34 2.31 0.68 4.62 0 7 C-0.99 6.01 -1.98 5.02 -3 4 C-2 2 -2 2 0 0 Z " fill="#606475" transform="translate(200,224)"/>
<path d="M0 0 C0.33 0.99 0.66 1.98 1 3 C1.66 3 2.32 3 3 3 C2.67 4.32 2.34 5.64 2 7 C1.34 7 0.68 7 0 7 C0 6.34 0 5.68 0 5 C-0.66 5 -1.32 5 -2 5 C-2 4.34 -2 3.68 -2 3 C-1.34 3 -0.68 3 0 3 C0 2.01 0 1.02 0 0 Z " fill="#5E6377" transform="translate(166,293)"/>
<path d="M0 0 C0.99 0.33 1.98 0.66 3 1 C2.625 3.9375 2.625 3.9375 2 7 C1.01 7.495 1.01 7.495 0 8 C0 5.36 0 2.72 0 0 Z " fill="#545B6C" transform="translate(230,288)"/>
<path d="M0 0 C1.65 0 3.3 0 5 0 C5 0.66 5 1.32 5 2 C4.34 2 3.68 2 3 2 C3 4.31 3 6.62 3 9 C2.67 9 2.34 9 2 9 C2 6.69 2 4.38 2 2 C1.34 2 0.68 2 0 2 C0 1.34 0 0.68 0 0 Z " fill="#080B1B" transform="translate(553,287)"/>
<path d="M0 0 C0.66 0.33 1.32 0.66 2 1 C1.67 2.32 1.34 3.64 1 5 C-0.32 5 -1.64 5 -3 5 C-3 4.01 -3 3.02 -3 2 C-2.01 1.34 -1.02 0.68 0 0 Z " fill="#747788" transform="translate(536,199)"/>
<path d="M0 0 C1.32 0 2.64 0 4 0 C5 3 5 3 4.0625 5.1875 C3.5365625 6.0846875 3.5365625 6.0846875 3 7 C2.01 4.69 1.02 2.38 0 0 Z " fill="#626373" transform="translate(302,193)"/>
</svg>
