
        <svg xmlns="http://www.w3.org/2000/svg" xmlns:xlink="http://www.w3.org/1999/xlink" version="1.1" width="3300" height="1044.123726087747" viewBox="0 0 3300 1044.123726087747">
			
			<g transform="scale(15) translate(10, 10)">
				<defs id="SvgjsDefs1500"/><g id="SvgjsG1501" featureKey="tgvQcv-0" transform="matrix(2.3752963525250617,0,0,2.3752963525250617,0,-12.731586501411483)" fill="#fff"><path d="M10.58 5.98 l4.6 0 l0 6.7 l-0.02 0 c-0.16 4.08 -3.46 7.32 -7.58 7.32 c-4.16 0 -7.58 -3.42 -7.58 -7.58 l0 -1.8 l6.66 0 l0 1.52 l-5.1 0 l0 0.28 c0 3.32 2.7 6.02 6.02 6.02 c3.3 0 5.96 -2.64 6.02 -5.92 l0 -5 l-1.5 0 l0 4.94 c0 2.48 -2.06 4.48 -4.52 4.48 c-2.08 0 -3.8 -1.42 -4.34 -3.28 l1.62 0 c0.46 1.04 1.5 1.76 2.72 1.76 c1.66 0 3 -1.34 3 -3 l0 -6.44 z M24.78 5.359999999999999 c4.2 0 7.62 3.42 7.62 7.64 s-3.42 7.62 -7.62 7.62 c-4.22 0 -7.64 -3.4 -7.64 -7.62 s3.42 -7.64 7.64 -7.64 z M24.78 19.08 c3.36 0 6.08 -2.72 6.08 -6.08 s-2.72 -6.1 -6.08 -6.1 c-3.38 0 -6.1 2.74 -6.1 6.1 s2.72 6.08 6.1 6.08 z M24.78 8.44 c2.5 0 4.54 2.06 4.54 4.56 s-2.04 4.54 -4.54 4.54 s-4.56 -2.04 -4.56 -4.54 s2.06 -4.56 4.56 -4.56 z M24.78 16 c1.66 0 3 -1.34 3 -3 c0 -1.68 -1.34 -3.02 -3 -3.02 c-1.68 0 -3.02 1.34 -3.02 3.02 c0 1.66 1.34 3 3.02 3 z M48.940000000000005 13 c0.96 0.7 1.56 1.82 1.56 3.1 c0 2.16 -1.74 3.9 -3.9 3.9 l-11.4 0 l0 -7.8 l4.66 0 l0 0.02 l0 3.1 l6.74 0 c0.42 0.02 0.74 0.36 0.74 0.78 s-0.32 0.76 -0.74 0.78 l-8.28 0 l0 -3.12 l-1.56 0 l0 4.68 l9.84 0 l0.02 0 c1.28 0 2.32 -1.04 2.32 -2.34 c0 -1.22 -0.98 -2.26 -2.2 -2.32 l-5.32 0 l0 -1.56 l5.26 0 c1.26 -0.06 2.26 -1.06 2.26 -2.34 c0 -1.3 -1.04 -2.34 -2.32 -2.34 l-0.02 0 l-9.84 0 l0 1.56 l9.84 0 c0.42 0.02 0.74 0.36 0.74 0.78 s-0.32 0.76 -0.74 0.78 l-11.4 0 l0 -4.68 l11.4 0 c2.16 0 3.9 1.74 3.9 3.9 c0 1.28 -0.6 2.4 -1.56 3.12 z M53.300000000000004 10.66 l0 -4.68 l15.3 0 l0 4.68 l-3.76 0 l0 -1.56 l2.2 0 l0 -1.56 l-12.18 0 l0 1.56 l5.32 0 l-0.02 9.34 l1.56 0 l0 -9.34 l1.56 0 l0 10.9 l-4.68 0 l0 -9.34 l-5.3 0 z M76.08 15.32 l0.9 -1.56 l2.72 4.68 l1.8 0 c-0.4 -0.64 -4.2 -7.14 -4.52 -7.78 l-3.92 6.8 l-1.46 2.54 l-5.4 0 c0.3 -0.5 2.32 -4.02 4.26 -7.4 c1.14 -1.98 2.4 -4.2 3.82 -6.62 l1.8 0 l-3.72 6.44 l-3.46 6.02 l1.8 0 c2.46 -4.34 4 -6.9 6.28 -10.9 c0.14 0.24 7.18 12.44 7.22 12.46 l-5.4 0 z"/></g><g id="SvgjsG1502" featureKey="ZpTWfr-0" transform="matrix(0.25773195876288657,0,0,0.25773195876288657,-0.15463918140254068,44.453608616111204)" fill="#fff"><path d="M2.46 20 l-1.86 -1.86 l0 -2.62 l2.52 0 l0 1.58 l0.38 0.38 l1.76 0 l0.38 -0.38 l0 -8.58 l-1.26 0 l-0.42 -0.28 l0 -2.24 l4.2 0 l0 12.14 l-1.86 1.86 l-3.84 0 z M22.78 20 l-1.86 -1.86 l0 -10.28 l1.86 -1.86 l4.54 0 l1.86 1.86 l0 10.28 l-1.86 1.86 l-4.54 0 z M23.82 17.48 l2.46 0 l0.38 -0.38 l0 -8.2 l-0.38 -0.38 l-2.46 0 l-0.38 0.38 l0 8.2 z M44.220000000000006 20 l-1.86 -1.86 l0 -9.62 l-0.42 -0.28 l0 -2.24 l3.36 0 l0 2.24 l-0.42 0.28 l0 8.58 l0.38 0.38 l2.32 0 l0.38 -0.38 l0 -8.58 l-0.42 -0.28 l0 -2.24 l3.36 0 l0 2.24 l-0.42 0.28 l0 9.62 l-1.86 1.86 l-4.4 0 z M63.660000000000004 20 l0 -2.24 l0.42 -0.28 l0 -8.96 l-0.42 -0.28 l0 -2.24 l6.4 0 l1.86 1.86 l0 5.1 l-1.08 1.1 l0.86 3.34 l0.5 0.36 l0 2.24 l-3.44 0 l0 -2.24 l0.36 -0.24 l-0.7 -2.7 l-1.82 0 l0 2.66 l0.42 0.28 l0 2.24 l-3.36 0 z M66.60000000000001 12.3 l2.42 0 l0.38 -0.38 l0 -3.02 l-0.38 -0.38 l-2.42 0 l0 3.78 z M84.78 20 l0 -2.24 l0.42 -0.28 l0 -8.96 l-0.42 -0.28 l0 -2.24 l3.1 0 l2.92 7.48 l0 -4.96 l-0.42 -0.28 l0 -2.24 l3.36 0 l0 2.24 l-0.42 0.28 l0 11.48 l-2.68 0 l-2.92 -7.48 l0 4.96 l0.42 0.28 l0 2.24 l-3.36 0 z M106.5 20 l0 -2.24 l0.42 -0.28 l0 -8.96 l-0.42 -0.28 l0 -2.24 l7.28 0 l0 2.94 l-2.24 0 l-0.28 -0.42 l-1.82 0 l0 3.22 l3.22 0 l0 2.52 l-3.22 0 l0 3.22 l1.82 0 l0.28 -0.42 l2.24 0 l0 2.94 l-7.28 0 z M128.52 20 l0 -2.24 l0.42 -0.28 l0 -2.68 l-2.22 -6.18 l-0.58 -0.38 l0 -2.24 l2.3 0 l1.76 4.86 l1.76 -4.86 l2.3 0 l0 2.24 l-0.58 0.38 l-2.22 6.14 l0 2.74 l0.42 0.26 l0 2.24 l-3.36 0 z M163.64 20 l-1.86 -1.86 l0 -10.28 l1.86 -1.86 l4.54 0 l1.86 1.86 l0 10.28 l-1.86 1.86 l-4.54 0 z M164.67999999999998 17.48 l2.46 0 l0.38 -0.38 l0 -8.2 l-0.38 -0.38 l-2.46 0 l-0.38 0.38 l0 8.2 z M182.79999999999998 20 l0 -2.24 l0.42 -0.28 l0 -8.96 l-0.42 -0.28 l0 -2.24 l7.28 0 l0 2.94 l-2.24 0 l-0.28 -0.42 l-1.82 0 l0 3.22 l3.22 0 l0 2.52 l-3.22 0 l0 3.22 l0.42 0.28 l0 2.24 l-3.36 0 z M217.99999999999997 20 l0 -2.24 l0.42 -0.28 l0 -8.96 l-0.42 -0.28 l0 -2.24 l6.26 0 l1.86 1.86 l0 4.12 l-1.02 1.02 l1.02 1.02 l0 4.12 l-1.86 1.86 l-6.26 0 z M220.93999999999997 17.48 l2.28 0 l0.38 -0.38 l0 -2.04 l-0.8 -0.8 l-1.86 0 l0 3.22 z M220.93999999999997 11.74 l1.86 0 l0.8 -0.8 l0 -2.04 l-0.38 -0.38 l-2.28 0 l0 3.22 z M241.15999999999997 20 l-1.86 -1.86 l0 -9.62 l-0.42 -0.28 l0 -2.24 l3.36 0 l0 2.24 l-0.42 0.28 l0 8.58 l0.38 0.38 l2.32 0 l0.38 -0.38 l0 -8.58 l-0.42 -0.28 l0 -2.24 l3.36 0 l0 2.24 l-0.42 0.28 l0 9.62 l-1.86 1.86 l-4.4 0 z M260.6 20 l0 -2.24 l0.42 -0.28 l0 -8.96 l-0.42 -0.28 l0 -2.24 l3.36 0 l0 2.24 l-0.42 0.28 l0 8.96 l0.42 0.28 l0 2.24 l-3.36 0 z M276.72 20 l0 -2.24 l0.42 -0.28 l0 -8.96 l-0.42 -0.28 l0 -2.24 l3.36 0 l0 2.24 l-0.42 0.28 l0 8.96 l1.4 0 l0.28 -0.42 l2.24 0 l0 2.94 l-6.86 0 z M296.34000000000003 20 l0 -2.24 l0.42 -0.28 l0 -8.96 l-0.42 -0.28 l0 -2.24 l6.68 0 l1.86 1.86 l0 10.28 l-1.86 1.86 l-6.68 0 z M299.28000000000003 17.48 l2.7 0 l0.38 -0.38 l0 -8.2 l-0.38 -0.38 l-2.7 0 l0 8.96 z M317.64000000000004 20 l0 -2.24 l0.42 -0.28 l0 -8.96 l-0.42 -0.28 l0 -2.24 l3.36 0 l0 2.24 l-0.42 0.28 l0 8.96 l0.42 0.28 l0 2.24 l-3.36 0 z M333.76000000000005 20 l0 -2.24 l0.42 -0.28 l0 -8.96 l-0.42 -0.28 l0 -2.24 l3.1 0 l2.92 7.48 l0 -4.96 l-0.42 -0.28 l0 -2.24 l3.36 0 l0 2.24 l-0.42 0.28 l0 11.48 l-2.68 0 l-2.92 -7.48 l0 4.96 l0.42 0.28 l0 2.24 l-3.36 0 z M357.34 20 l-1.86 -1.86 l0 -10.28 l1.86 -1.86 l4.4 0 l1.86 1.86 l0 2.62 l-2.52 0 l0 -1.58 l-0.38 -0.38 l-2.32 0 l-0.38 0.38 l0 8.2 l0.38 0.38 l2.32 0 l0.38 -0.38 l0 -2.84 l-0.84 0 l-0.42 -0.28 l0 -2.24 l3.78 0 l0 6.4 l-1.86 1.86 l-4.4 0 z M394.04 20 l0 -2.24 l0.42 -0.28 l0 -8.96 l-0.42 0 l-0.28 0.42 l-2.24 0 l0 -2.94 l8.4 0 l0 2.94 l-2.24 0 l-0.28 -0.42 l-0.42 0 l0 8.96 l0.42 0.28 l0 2.24 l-3.36 0 z M412.28000000000003 20 l0 -2.24 l0.42 -0.28 l1.82 -8.96 l-0.42 -0.28 l0 -2.24 l5.32 0 l0 2.24 l-0.42 0.28 l1.82 8.96 l0.42 0.28 l0 2.24 l-2.48 0 l-0.62 -3.08 l-2.76 0 l-0.62 3.08 l-2.48 0 z M415.90000000000003 14.4 l1.72 0 l-0.86 -4.28 z M433.6000000000001 20 l0 -2.24 l0.42 -0.28 l0 -8.96 l-0.42 -0.28 l0 -2.24 l3.36 0 l0 2.24 l-0.42 0.28 l0 8.96 l1.4 0 l0.28 -0.42 l2.24 0 l0 2.94 l-6.86 0 z M453.2200000000001 20 l0 -2.24 l0.42 -0.28 l0 -8.96 l-0.42 -0.28 l0 -2.24 l7.28 0 l0 2.94 l-2.24 0 l-0.28 -0.42 l-1.82 0 l0 3.22 l3.22 0 l0 2.52 l-3.22 0 l0 3.22 l1.82 0 l0.28 -0.42 l2.24 0 l0 2.94 l-7.28 0 z M473.2600000000001 20 l0 -2.24 l0.42 -0.28 l0 -8.96 l-0.42 -0.28 l0 -2.24 l3.1 0 l2.92 7.48 l0 -4.96 l-0.42 -0.28 l0 -2.24 l3.36 0 l0 2.24 l-0.42 0.28 l0 11.48 l-2.68 0 l-2.92 -7.48 l0 4.96 l0.42 0.28 l0 2.24 l-3.36 0 z M497.5000000000001 20 l0 -2.24 l0.42 -0.28 l0 -8.96 l-0.42 0 l-0.28 0.42 l-2.24 0 l0 -2.94 l8.4 0 l0 2.94 l-2.24 0 l-0.28 -0.42 l-0.42 0 l0 8.96 l0.42 0.28 l0 2.24 l-3.36 0 z M533.1600000000001 20 l-1.86 -1.86 l0 -4.12 l1.02 -1.02 l-1.02 -1.02 l0 -4.12 l1.86 -1.86 l4.12 0 l1.86 1.86 l0 2.62 l-2.52 0 l0 -1.58 l-0.38 -0.38 l-2.04 0 l-0.38 0.38 l0 2.04 l0.8 0.8 l5.5 0 l0 2.24 l-0.42 0.28 l-0.56 0 l0 3.88 l-1.86 1.86 l-4.12 0 z M534.2 17.48 l2.04 0 l0.38 -0.38 l0 -2.84 l-2 0 l-0.8 0.8 l0 2.04 z M567.6400000000001 20 l0 -2.24 l0.42 -0.28 l1.82 -8.96 l-0.42 -0.28 l0 -2.24 l5.32 0 l0 2.24 l-0.42 0.28 l1.82 8.96 l0.42 0.28 l0 2.24 l-2.48 0 l-0.62 -3.08 l-2.76 0 l-0.62 3.08 l-2.48 0 z M571.2600000000001 14.4 l1.72 0 l-0.86 -4.28 z M590.82 20 l-1.86 -1.86 l0 -2.62 l2.52 0 l0 1.58 l0.38 0.38 l2.04 0 l0.38 -0.38 l0 -2.46 l-0.38 -0.38 l-3.08 0 l-1.86 -1.86 l0 -4.54 l1.86 -1.86 l4.12 0 l1.86 1.86 l0 2.62 l-2.52 0 l0 -1.58 l-0.38 -0.38 l-2.04 0 l-0.38 0.38 l0 2.46 l0.38 0.38 l3.08 0 l1.86 1.86 l0 4.54 l-1.86 1.86 l-4.12 0 z M609.5600000000001 20 l0 -2.24 l0.42 -0.28 l0 -8.96 l-0.42 -0.28 l0 -2.24 l6.4 0 l1.86 1.86 l0 5.38 l-1.86 1.86 l-3.46 0 l0 2.38 l0.42 0.28 l0 2.24 l-3.36 0 z M612.5 12.58 l2.42 0 l0.38 -0.38 l0 -3.3 l-0.38 -0.38 l-2.42 0 l0 4.06 z M630.58 20 l0 -2.24 l0.42 -0.28 l0 -8.96 l-0.42 -0.28 l0 -2.24 l3.36 0 l0 2.24 l-0.42 0.28 l0 8.96 l0.42 0.28 l0 2.24 l-3.36 0 z M646.7 20 l0 -2.24 l0.42 -0.28 l0 -8.96 l-0.42 -0.28 l0 -2.24 l6.4 0 l1.86 1.86 l0 5.1 l-1.08 1.1 l0.86 3.34 l0.5 0.36 l0 2.24 l-3.44 0 l0 -2.24 l0.36 -0.24 l-0.7 -2.7 l-1.82 0 l0 2.66 l0.42 0.28 l0 2.24 l-3.36 0 z M649.64 12.3 l2.42 0 l0.38 -0.38 l0 -3.02 l-0.38 -0.38 l-2.42 0 l0 3.78 z M667.4200000000001 20 l0 -2.24 l0.42 -0.28 l1.82 -8.96 l-0.42 -0.28 l0 -2.24 l5.32 0 l0 2.24 l-0.42 0.28 l1.82 8.96 l0.42 0.28 l0 2.24 l-2.48 0 l-0.62 -3.08 l-2.76 0 l-0.62 3.08 l-2.48 0 z M671.0400000000001 14.4 l1.72 0 l-0.86 -4.28 z M691.26 20 l0 -2.24 l0.42 -0.28 l0 -8.96 l-0.42 0 l-0.28 0.42 l-2.24 0 l0 -2.94 l8.4 0 l0 2.94 l-2.24 0 l-0.28 -0.42 l-0.42 0 l0 8.96 l0.42 0.28 l0 2.24 l-3.36 0 z M709.9 20 l0 -2.24 l0.42 -0.28 l0 -8.96 l-0.42 -0.28 l0 -2.24 l3.36 0 l0 2.24 l-0.42 0.28 l0 8.96 l0.42 0.28 l0 2.24 l-3.36 0 z M727.88 20 l-1.86 -1.86 l0 -10.28 l1.86 -1.86 l4.54 0 l1.86 1.86 l0 10.28 l-1.86 1.86 l-4.54 0 z M728.92 17.48 l2.46 0 l0.38 -0.38 l0 -8.2 l-0.38 -0.38 l-2.46 0 l-0.38 0.38 l0 8.2 z M747.04 20 l0 -2.24 l0.42 -0.28 l0 -8.96 l-0.42 -0.28 l0 -2.24 l3.1 0 l2.92 7.48 l0 -4.96 l-0.42 -0.28 l0 -2.24 l3.36 0 l0 2.24 l-0.42 0.28 l0 11.48 l-2.68 0 l-2.92 -7.48 l0 4.96 l0.42 0.28 l0 2.24 l-3.36 0 z M770.62 20 l-1.86 -1.86 l0 -2.62 l2.52 0 l0 1.58 l0.38 0.38 l2.04 0 l0.38 -0.38 l0 -2.46 l-0.38 -0.38 l-3.08 0 l-1.86 -1.86 l0 -4.54 l1.86 -1.86 l4.12 0 l1.86 1.86 l0 2.62 l-2.52 0 l0 -1.58 l-0.38 -0.38 l-2.04 0 l-0.38 0.38 l0 2.46 l0.38 0.38 l3.08 0 l1.86 1.86 l0 4.54 l-1.86 1.86 l-4.12 0 z"/></g>
			</g>
		</svg>
	